<svg width="19" height="20" viewBox="0 0 19 20" fill="none" xmlns="http://www.w3.org/2000/svg">
<path d="M13.4583 15.1072C12.5795 15.1072 11.875 15.8118 11.875 16.6905C11.875 17.1104 12.0418 17.5132 12.3387 17.8101C12.6356 18.107 13.0384 18.2738 13.4583 18.2738C13.8782 18.2738 14.2809 18.107 14.5779 17.8101C14.8748 17.5132 15.0416 17.1104 15.0416 16.6905C15.0416 16.2706 14.8748 15.8679 14.5779 15.5709C14.2809 15.274 13.8782 15.1072 13.4583 15.1072ZM0.791626 2.44051V4.02384H2.37496L5.22496 10.0326L4.14829 11.9722C4.02954 12.1938 3.95829 12.4551 3.95829 12.7322C3.95829 13.1521 4.12511 13.5548 4.42204 13.8518C4.71897 14.1487 5.1217 14.3155 5.54163 14.3155H15.0416V12.7322H5.87413C5.82164 12.7322 5.77129 12.7113 5.73418 12.6742C5.69706 12.6371 5.67621 12.5867 5.67621 12.5343C5.67621 12.4947 5.68413 12.463 5.69996 12.4393L6.41246 11.1488H12.3104C12.9041 11.1488 13.4266 10.8163 13.6958 10.3334L16.53 5.21134C16.5854 5.08467 16.625 4.95009 16.625 4.81551C16.625 4.60554 16.5416 4.40418 16.3931 4.25571C16.2446 4.10725 16.0433 4.02384 15.8333 4.02384H4.12454L3.38038 2.44051M5.54163 15.1072C4.66288 15.1072 3.95829 15.8118 3.95829 16.6905C3.95829 17.1104 4.12511 17.5132 4.42204 17.8101C4.71897 18.107 5.1217 18.2738 5.54163 18.2738C5.96155 18.2738 6.36428 18.107 6.66121 17.8101C6.95814 17.5132 7.12496 17.1104 7.12496 16.6905C7.12496 16.2706 6.95814 15.8679 6.66121 15.5709C6.36428 15.274 5.96155 15.1072 5.54163 15.1072Z" fill="black"/>
</svg>
