<svg width="20" height="21" viewBox="0 0 20 21" fill="none" xmlns="http://www.w3.org/2000/svg">
<path d="M9.99996 10.4405C9.44742 10.4405 8.91752 10.221 8.52682 9.83032C8.13612 9.43962 7.91663 8.90972 7.91663 8.35718C7.91663 7.80465 8.13612 7.27474 8.52682 6.88404C8.91752 6.49334 9.44742 6.27385 9.99996 6.27385C10.5525 6.27385 11.0824 6.49334 11.4731 6.88404C11.8638 7.27474 12.0833 7.80465 12.0833 8.35718C12.0833 8.63077 12.0294 8.90168 11.9247 9.15444C11.82 9.4072 11.6666 9.63687 11.4731 9.83032C11.2796 10.0238 11.05 10.1772 10.7972 10.2819C10.5445 10.3866 10.2735 10.4405 9.99996 10.4405ZM9.99996 2.52385C8.45286 2.52385 6.96913 3.13843 5.87517 4.23239C4.78121 5.32636 4.16663 6.81009 4.16663 8.35718C4.16663 12.7322 9.99996 19.1905 9.99996 19.1905C9.99996 19.1905 15.8333 12.7322 15.8333 8.35718C15.8333 6.81009 15.2187 5.32636 14.1247 4.23239C13.0308 3.13843 11.5471 2.52385 9.99996 2.52385Z" fill="black"/>
</svg>
