<svg width="24" height="24" viewBox="0 0 24 24" fill="none" xmlns="http://www.w3.org/2000/svg">
<mask id="mask0_423_991" style="mask-type:alpha" maskUnits="userSpaceOnUse" x="0" y="0" width="24" height="24">
<rect width="24" height="24" fill="#D9D9D9"/>
</mask>
<g mask="url(#mask0_423_991)">
<path d="M17.7396 42.1369V27.0245H21.809V22.7066H31.9826V31.3423H36.0521V42.1369H27.9132V37.8191H25.8785V42.1369H17.7396ZM19.7743 39.978H21.809V37.8191H19.7743V39.978ZM19.7743 35.6601H21.809V33.5012H19.7743V35.6601ZM19.7743 31.3423H21.809V29.1834H19.7743V31.3423ZM23.8438 35.6601H25.8785V33.5012H23.8438V35.6601ZM23.8438 31.3423H25.8785V29.1834H23.8438V31.3423ZM23.8438 27.0245H25.8785V24.8655H23.8438V27.0245ZM27.9132 35.6601H29.9479V33.5012H27.9132V35.6601ZM27.9132 31.3423H29.9479V29.1834H27.9132V31.3423ZM27.9132 27.0245H29.9479V24.8655H27.9132V27.0245ZM31.9826 39.978H34.0174V37.8191H31.9826V39.978ZM31.9826 35.6601H34.0174V33.5012H31.9826V35.6601Z" fill="#1C1B1F"/>
</g>
</svg>
