<svg width="38" height="34" viewBox="0 0 38 34" fill="none" xmlns="http://www.w3.org/2000/svg">
<path d="M3.55307 0.788513C2.61019 0.788513 1.70592 1.21319 1.0392 1.96913C0.372484 2.72506 -0.0020752 3.75033 -0.0020752 4.81938V29.0046C-0.0020752 30.0736 0.372484 31.0989 1.0392 31.8548C1.70592 32.6108 2.61019 33.0355 3.55307 33.0355H34.3643C35.3072 33.0355 36.2115 32.6108 36.8782 31.8548C37.5449 31.0989 37.9195 30.0736 37.9195 29.0046V4.81938C37.9195 3.75033 37.5449 2.72506 36.8782 1.96913C36.2115 1.21319 35.3072 0.788513 34.3643 0.788513H3.55307ZM10.6634 16.912C9.72047 16.912 8.81621 16.4873 8.14949 15.7314C7.48277 14.9754 7.10821 13.9502 7.10821 12.8811C7.10821 11.8121 7.48277 10.7868 8.14949 10.0309C8.81621 9.27493 9.72047 8.85025 10.6634 8.85025C11.6062 8.85025 12.5105 9.27493 13.1772 10.0309C13.8439 10.7868 14.2185 11.8121 14.2185 12.8811C14.2185 13.9502 13.8439 14.9754 13.1772 15.7314C12.5105 16.4873 11.6062 16.912 10.6634 16.912ZM6.98734 18.9274H14.337C14.9333 18.9281 15.5051 19.197 15.9267 19.6751C16.3484 20.1532 16.5856 20.8015 16.5862 21.4776C16.5862 23.7537 15.2187 25.7369 13.2705 26.2905L13.1306 26.3308C11.5095 26.7876 9.81249 26.7876 8.19134 26.3308L8.04914 26.2905C7.10305 26.0215 6.26337 25.4018 5.66348 24.5298C5.06358 23.6578 4.73788 22.5835 4.73812 21.4776C4.73874 20.8015 4.97591 20.1532 5.39759 19.6751C5.81926 19.197 6.391 18.9281 6.98734 18.9274ZM21.3288 12.8811C21.3288 12.5248 21.4536 12.183 21.6759 11.931C21.8981 11.6791 22.1995 11.5375 22.5138 11.5375H29.6241C29.9384 11.5375 30.2398 11.6791 30.4621 11.931C30.6843 12.183 30.8092 12.5248 30.8092 12.8811C30.8092 13.2375 30.6843 13.5792 30.4621 13.8312C30.2398 14.0832 29.9384 14.2247 29.6241 14.2247H22.5138C22.1995 14.2247 21.8981 14.0832 21.6759 13.8312C21.4536 13.5792 21.3288 13.2375 21.3288 12.8811ZM22.5138 19.5992H29.6241C29.9384 19.5992 30.2398 19.7408 30.4621 19.9928C30.6843 20.2447 30.8092 20.5865 30.8092 20.9429C30.8092 21.2992 30.6843 21.641 30.4621 21.8929C30.2398 22.1449 29.9384 22.2865 29.6241 22.2865H22.5138C22.1995 22.2865 21.8981 22.1449 21.6759 21.8929C21.4536 21.641 21.3288 21.2992 21.3288 20.9429C21.3288 20.5865 21.4536 20.2447 21.6759 19.9928C21.8981 19.7408 22.1995 19.5992 22.5138 19.5992Z" fill="black"/>
</svg>
