<svg width="19" height="20" viewBox="0 0 19 20" fill="none" xmlns="http://www.w3.org/2000/svg">
<path d="M15.7938 17.4822C14.1444 17.4822 12.5149 17.1228 10.9052 16.4039C9.29549 15.6851 7.8309 14.6657 6.51146 13.3457C5.19201 12.0263 4.17287 10.5617 3.45404 8.95197C2.73521 7.34225 2.37553 5.71273 2.375 4.06343C2.375 3.82593 2.45417 3.62801 2.6125 3.46968C2.77083 3.31134 2.96875 3.23218 3.20625 3.23218H6.4125C6.59722 3.23218 6.76215 3.29498 6.90729 3.42059C7.05243 3.54621 7.13819 3.69451 7.16458 3.86551L7.67917 6.63634C7.70556 6.84746 7.69896 7.02558 7.65938 7.17072C7.61979 7.31586 7.54722 7.44121 7.44167 7.54676L5.52187 9.48634C5.78576 9.97454 6.099 10.4461 6.46158 10.9011C6.82417 11.356 7.22343 11.7948 7.65938 12.2176C8.0684 12.6266 8.49722 13.0061 8.94583 13.356C9.39444 13.7059 9.86944 14.0258 10.3708 14.3155L12.2312 12.4551C12.35 12.3363 12.5052 12.2474 12.6968 12.1883C12.8883 12.1292 13.0762 12.1126 13.2604 12.1384L15.9917 12.6926C16.1764 12.7454 16.3281 12.8412 16.4469 12.98C16.5656 13.1188 16.625 13.2737 16.625 13.4447V16.6509C16.625 16.8884 16.5458 17.0863 16.3875 17.2447C16.2292 17.403 16.0313 17.4822 15.7938 17.4822Z" fill="black"/>
</svg>
