<svg width="63" height="395" viewBox="0 0 63 395" fill="none" xmlns="http://www.w3.org/2000/svg">
<path d="M35.6845 336.643H31.3155C30.7785 336.643 30.3447 337.122 30.3447 337.714V355.929C30.3447 356.521 30.7785 357 31.3155 357H35.6845C36.2215 357 36.6553 356.521 36.6553 355.929V337.714C36.6553 337.122 36.2215 336.643 35.6845 336.643ZM45.0291 327H40.6602C40.1232 327 39.6893 327.479 39.6893 328.071V355.929C39.6893 356.521 40.1232 357 40.6602 357H45.0291C45.5661 357 46 356.521 46 355.929V328.071C46 327.479 45.5661 327 45.0291 327ZM26.3398 346.286H21.9709C21.4339 346.286 21 346.765 21 347.357V355.929C21 356.521 21.4339 357 21.9709 357H26.3398C26.8768 357 27.3107 356.521 27.3107 355.929V347.357C27.3107 346.765 26.8768 346.286 26.3398 346.286Z" fill="black"/>
<path d="M33.6 190.6C32.1015 190.6 30.9 191.802 30.9 193.3C30.9 194.016 31.1845 194.703 31.6908 195.209C32.1972 195.716 32.8839 196 33.6 196C34.3161 196 35.0028 195.716 35.5092 195.209C36.0155 194.703 36.3 194.016 36.3 193.3C36.3 192.584 36.0155 191.897 35.5092 191.391C35.0028 190.884 34.3161 190.6 33.6 190.6ZM12 169V171.7H14.7L19.56 181.947L17.724 185.254C17.5215 185.632 17.4 186.077 17.4 186.55C17.4 187.266 17.6845 187.953 18.1908 188.459C18.6972 188.966 19.3839 189.25 20.1 189.25H36.3V186.55H20.667C20.5775 186.55 20.4916 186.514 20.4284 186.451C20.3651 186.388 20.3295 186.302 20.3295 186.212C20.3295 186.145 20.343 186.091 20.37 186.051L21.585 183.85H31.6425C32.655 183.85 33.546 183.283 34.005 182.46L38.838 173.725C38.9325 173.509 39 173.28 39 173.05C39 172.692 38.8578 172.349 38.6046 172.095C38.3514 171.842 38.008 171.7 37.65 171.7H17.6835L16.4145 169M20.1 190.6C18.6015 190.6 17.4 191.802 17.4 193.3C17.4 194.016 17.6845 194.703 18.1908 195.209C18.6972 195.716 19.3839 196 20.1 196C20.8161 196 21.5028 195.716 22.0092 195.209C22.5155 194.703 22.8 194.016 22.8 193.3C22.8 192.584 22.5155 191.897 22.0092 191.391C21.5028 190.884 20.8161 190.6 20.1 190.6Z" fill="black"/>
<path d="M14.7188 256C13.9977 256 13.3062 256.29 12.7963 256.805C12.2864 257.321 12 258.021 12 258.75V275.25C12 275.979 12.2864 276.679 12.7963 277.195C13.3062 277.71 13.9977 278 14.7188 278H38.2812C39.0023 278 39.6938 277.71 40.2037 277.195C40.7136 276.679 41 275.979 41 275.25V258.75C41 258.021 40.7136 257.321 40.2037 256.805C39.6938 256.29 39.0023 256 38.2812 256H14.7188ZM20.1562 267C19.4352 267 18.7437 266.71 18.2338 266.195C17.7239 265.679 17.4375 264.979 17.4375 264.25C17.4375 263.521 17.7239 262.821 18.2338 262.305C18.7437 261.79 19.4352 261.5 20.1562 261.5C20.8773 261.5 21.5688 261.79 22.0787 262.305C22.5886 262.821 22.875 263.521 22.875 264.25C22.875 264.979 22.5886 265.679 22.0787 266.195C21.5688 266.71 20.8773 267 20.1562 267ZM17.3451 268.375H22.9656C23.4217 268.375 23.8589 268.559 24.1814 268.885C24.5038 269.211 24.6852 269.654 24.6857 270.115C24.6857 271.668 23.6399 273.021 22.15 273.398L22.0431 273.426C20.8033 273.738 19.5056 273.738 18.2658 273.426L18.1571 273.398C17.4336 273.215 16.7914 272.792 16.3327 272.197C15.8739 271.602 15.6248 270.869 15.625 270.115C15.6255 269.654 15.8069 269.211 16.1293 268.885C16.4518 268.559 16.889 268.375 17.3451 268.375ZM28.3125 264.25C28.3125 264.007 28.408 263.774 28.5779 263.602C28.7479 263.43 28.9784 263.333 29.2188 263.333H34.6562C34.8966 263.333 35.1271 263.43 35.2971 263.602C35.467 263.774 35.5625 264.007 35.5625 264.25C35.5625 264.493 35.467 264.726 35.2971 264.898C35.1271 265.07 34.8966 265.167 34.6562 265.167H29.2188C28.9784 265.167 28.7479 265.07 28.5779 264.898C28.408 264.726 28.3125 264.493 28.3125 264.25ZM29.2188 268.833H34.6562C34.8966 268.833 35.1271 268.93 35.2971 269.102C35.467 269.274 35.5625 269.507 35.5625 269.75C35.5625 269.993 35.467 270.226 35.2971 270.398C35.1271 270.57 34.8966 270.667 34.6562 270.667H29.2188C28.9784 270.667 28.7479 270.57 28.5779 270.398C28.408 270.226 28.3125 269.993 28.3125 269.75C28.3125 269.507 28.408 269.274 28.5779 269.102C28.7479 268.93 28.9784 268.833 29.2188 268.833Z" fill="black"/>
<path d="M33.6347 115C32.458 115 30.8051 114.574 28.33 113.192C25.3202 111.504 22.9922 109.946 19.9987 106.961C17.1125 104.077 15.7079 102.21 13.7422 98.6338C11.5215 94.5958 11.9 92.4792 12.3232 91.5746C12.8272 90.4934 13.571 89.8467 14.5325 89.2048C15.0786 88.8471 15.6565 88.5404 16.2589 88.2887C16.3192 88.2628 16.3752 88.2381 16.4253 88.2158C16.7237 88.0814 17.1758 87.8783 17.7484 88.0953C18.1306 88.2387 18.4718 88.5322 19.0059 89.0596C20.1012 90.1396 21.5979 92.5449 22.1501 93.7262C22.5208 94.5223 22.7661 95.0479 22.7668 95.6373C22.7668 96.3274 22.4195 96.8595 21.9982 97.4339C21.9192 97.5418 21.8408 97.6448 21.7649 97.7449C21.3062 98.3476 21.2055 98.5217 21.2718 98.8327C21.4062 99.4577 22.4087 101.318 24.0561 102.962C25.7036 104.605 27.5108 105.544 28.1383 105.678C28.4626 105.747 28.6405 105.642 29.2625 105.168C29.3518 105.099 29.4434 105.029 29.5392 104.958C30.1818 104.48 30.6894 104.142 31.3633 104.142H31.3669C31.9535 104.142 32.4556 104.397 33.2875 104.816C34.3725 105.363 36.8506 106.841 37.9375 107.937C38.4661 108.47 38.7609 108.81 38.905 109.191C39.122 109.765 38.9176 110.216 38.7844 110.517C38.7621 110.567 38.7374 110.622 38.7115 110.683C38.4577 111.284 38.1492 111.861 37.7898 112.405C37.149 113.363 36.4998 114.105 35.4159 114.61C34.8594 114.873 34.2503 115.006 33.6347 115Z" fill="black"/>
<path d="M19.5179 27.2588V18.5527H26.4744V27.2588C26.4744 28.2164 27.257 29 28.2135 29H33.4308C34.3873 29 35.1699 28.2164 35.1699 27.2588V15.0702H38.1264C38.9264 15.0702 39.309 14.0778 38.7004 13.5554L24.1613 0.444011C23.5005 -0.148004 22.4918 -0.148004 21.8309 0.444011L7.29191 13.5554C6.70061 14.0778 7.06583 15.0702 7.86582 15.0702H10.8223V27.2588C10.8223 28.2164 11.6049 29 12.5614 29H17.7788C18.7353 29 19.5179 28.2164 19.5179 27.2588Z" fill="black"/>
</svg>
