<svg width="4" height="8" viewBox="0 0 4 8" fill="none" xmlns="http://www.w3.org/2000/svg">
<path d="M0.702516 0.986327C0.577673 1.09531 0.50122 1.2494 0.489969 1.41474C0.478717 1.58007 0.533587 1.74311 0.642515 1.86799L1.71918 3.10133C2.13692 3.5803 2.37291 4.19092 2.38585 4.82633L2.43335 7.09049C2.43677 7.25625 2.50591 7.41386 2.62554 7.52865C2.74517 7.64344 2.90551 7.706 3.07127 7.70258C3.23703 7.69915 3.39464 7.63002 3.50942 7.51039C3.62421 7.39075 3.68677 7.23042 3.68335 7.06466L3.63585 4.79966C3.61648 3.8713 3.27136 2.9793 2.66085 2.27966L1.58418 1.04633C1.4752 0.921484 1.32111 0.845031 1.15577 0.83378C0.990437 0.822528 0.827403 0.877399 0.702516 0.986327Z" fill="black"/>
</svg>
