<svg width="34" height="28" viewBox="0 0 34 28" fill="none" xmlns="http://www.w3.org/2000/svg">
<mask id="mask0_961_480" style="mask-type:alpha" maskUnits="userSpaceOnUse" x="0" y="0" width="34" height="28">
<rect y="0.276474" width="33.4187" height="26.8706" fill="#D9D9D9"/>
</mask>
<g mask="url(#mask0_961_480)">
<path d="M23.1842 14.8314L15.3169 8.5056L23.1842 2.17981L31.0516 8.5056L23.1842 14.8314ZM4.17737 12.5922V3.6353H15.3169V12.5922H4.17737ZM18.1018 23.7882V14.8314H29.2414V23.7882H18.1018ZM4.17737 23.7882V14.8314H15.3169V23.7882H4.17737ZM6.96226 10.3529H12.532V5.87452H6.96226V10.3529ZM23.2191 11.6965L27.1527 8.53359L23.2191 5.37069L19.2854 8.53359L23.2191 11.6965ZM20.8867 21.549H26.4565V17.0706H20.8867V21.549ZM6.96226 21.549H12.532V17.0706H6.96226V21.549Z" fill="#1C1B1F"/>
</g>
</svg>
